<?xml version="1.0" encoding="UTF-8"?>
<svg version="1.1" xmlns="http://www.w3.org/2000/svg" width="477" height="235">
<path d="M0 0 C157.41 0 314.82 0 477 0 C477 77.55 477 155.1 477 235 C319.59 235 162.18 235 0 235 C0 157.45 0 79.9 0 0 Z " fill="#759AC7" transform="translate(0,0)"/>
<path d="M0 0 C1.45246005 0.01507744 2.90493527 0.02876042 4.35742188 0.04101562 C7.88480357 0.07119858 11.41003939 0.1299523 14.9375 0.1875 C14.9375 8.7675 14.9375 17.3475 14.9375 26.1875 C13.6175 26.1875 12.2975 26.1875 10.9375 26.1875 C10.64617187 25.33027344 10.35484375 24.47304688 10.0546875 23.58984375 C7.28835282 15.87368381 4.80119433 9.13131499 -2.4375 4.75 C-6.07205677 3.97116641 -9.37986552 3.46292486 -13.0625 4.1875 C-19.06540434 8.72302772 -21.26707724 14.72132859 -22.64135742 21.86303711 C-23.4878595 28.54525093 -23.39517807 35.27349095 -23.37817383 42.00024414 C-23.3750111 44.61582042 -23.39854515 47.23026573 -23.42382812 49.84570312 C-23.86425336 64.79968019 -23.86425336 64.79968019 -17.75 77.875 C-13.83519635 79.78688085 -10.94469767 79.76261596 -6.8125 78.5 C-4.40600948 76.69513211 -3.9923 75.03356164 -3.0625 72.1875 C-2.65262181 67.98670397 -2.73804185 63.78133675 -2.75 59.5625 C-2.73388672 58.4178125 -2.71777344 57.273125 -2.70117188 56.09375 C-2.70052734 54.99804688 -2.69988281 53.90234375 -2.69921875 52.7734375 C-2.69623779 51.7736084 -2.69325684 50.7737793 -2.69018555 49.74365234 C-2.85833135 47.16748242 -2.85833135 47.16748242 -4.38598633 45.41259766 C-6.75429064 43.68198006 -9.265182 42.99561409 -12.0625 42.1875 C-12.0625 41.1975 -12.0625 40.2075 -12.0625 39.1875 C-2.8225 39.1875 6.4175 39.1875 15.9375 39.1875 C15.9375 60.9675 15.9375 82.7475 15.9375 105.1875 C14.6175 105.1875 13.2975 105.1875 11.9375 105.1875 C11.61136719 104.37925781 11.28523438 103.57101563 10.94921875 102.73828125 C10.51222656 101.66964844 10.07523438 100.60101563 9.625 99.5 C9.19574219 98.44425781 8.76648438 97.38851562 8.32421875 96.30078125 C5.77983438 90.58845916 3.89277724 87.49700405 -1.80859375 84.9140625 C-6.76143037 83.31748085 -11.22418399 83.40523787 -16 85.4375 C-18.2926749 87.38279992 -19.20672374 88.30897985 -20.0625 91.1875 C-20.49907661 96.68836529 -20.53890223 99.6869873 -17.0625 104.1875 C-14.69037346 105.91667579 -12.15940327 107.26435881 -9.5625 108.625 C-8.84779541 109.01478027 -8.13309082 109.40456055 -7.39672852 109.80615234 C-4.22183303 111.53246834 -1.02461049 113.20692235 2.19140625 114.85546875 C9.41488405 118.60283623 14.71849558 122.39371825 18.875 129.5 C20.84415934 136.33414123 20.85409372 141.89922499 17.875 148.4375 C12.93033064 157.22496253 6.39603365 160.36297617 -3.0625 163.1875 C-3.62718994 163.36619629 -4.19187988 163.54489258 -4.77368164 163.72900391 C-7.95023807 164.36533169 -10.99591697 164.29842862 -14.234375 164.28515625 C-15.4831543 164.28265869 -16.73193359 164.28016113 -18.01855469 164.27758789 C-20.39155762 164.26393188 -20.39155762 164.26393188 -22.8125 164.25 C-30.36125 164.2190625 -30.36125 164.2190625 -38.0625 164.1875 C-38.0625 153.2975 -38.0625 142.4075 -38.0625 131.1875 C-36.7425 131.1875 -35.4225 131.1875 -34.0625 131.1875 C-33.83175781 132.02152344 -33.60101563 132.85554687 -33.36328125 133.71484375 C-30.59635736 143.26237164 -27.94856731 152.32296749 -19.375 158.15234375 C-14.98526403 160.11734381 -10.73641419 160.02238238 -6.0625 159.1875 C-2.5149852 157.50709825 -0.76346121 156.25418009 1.375 153 C2.43766706 147.68666468 1.8779975 143.16679559 -0.4453125 138.27734375 C-3.67150033 133.71041194 -8.95065644 131.64401043 -13.8125 129.1875 C-32.94132194 119.36735612 -32.94132194 119.36735612 -36.4375 112.375 C-38.19984549 106.20679079 -38.15032906 99.58072393 -35.5 93.75 C-31.36741316 89.40548563 -26.86706925 85.75931793 -22.0625 82.1875 C-23.02349609 81.76791016 -23.02349609 81.76791016 -24.00390625 81.33984375 C-32.79286651 77.266272 -38.44795358 72.72987993 -42.23828125 63.69140625 C-46.7908659 49.86104247 -47.31364426 33.57752498 -41.0625 20.1875 C-36.0616978 11.01504416 -28.99412922 3.94439866 -18.91210938 0.76098633 C-12.70344538 -0.48851262 -6.3042789 -0.11441392 0 0 Z " fill="#FAFBFD" transform="translate(72.0625,33.8125)"/>
<path d="M0 0 C5.61 0 11.22 0 17 0 C17.495 8.415 17.495 8.415 18 17 C19.65 15.68 21.3 14.36 23 13 C28.43617053 11.18794316 33.98215186 11.2900164 39.375 13.1875 C43.90285012 16.3138727 46.24900298 19.84460154 48 25 C48.24050903 27.53742981 48.24050903 27.53742981 48.22705078 30.24926758 C48.22689972 31.26994827 48.22674866 32.29062897 48.22659302 33.34223938 C48.21627045 34.4319957 48.20594788 35.52175201 48.1953125 36.64453125 C48.1924826 37.7694548 48.18965271 38.89437836 48.18673706 40.0533905 C48.17555836 43.63986936 48.15045763 47.22609685 48.125 50.8125 C48.11496723 53.24674118 48.1058419 55.68098628 48.09765625 58.11523438 C48.07562652 64.0769195 48.04111218 70.03841716 48 76 C42.06 76 36.12 76 30 76 C29.97494385 74.30883057 29.9498877 72.61766113 29.92407227 70.87524414 C29.84031176 65.29920568 29.75204041 59.72325097 29.66066074 54.14733219 C29.60540198 50.76532878 29.55197744 47.38331676 29.50268555 44.0012207 C29.44599054 40.11660573 29.38142415 36.23214122 29.31640625 32.34765625 C29.29969376 31.12788589 29.28298126 29.90811554 29.26576233 28.65138245 C29.2358445 26.96975258 29.2358445 26.96975258 29.20532227 25.25415039 C29.18977798 24.26153702 29.1742337 23.26892365 29.15821838 22.24623108 C29.24881556 20.03025703 29.24881556 20.03025703 28 19 C24.58428147 18.49968794 24.58428147 18.49968794 21 19 C18.34215524 22.42426505 17.61972311 25.05876025 17.56762695 29.34106445 C17.54783279 30.3817659 17.52803864 31.42246735 17.50764465 32.4947052 C17.50125473 33.6063353 17.49486481 34.71796539 17.48828125 35.86328125 C17.46135445 37.58396065 17.46135445 37.58396065 17.43388367 39.33940125 C17.379776 42.99706364 17.34588249 46.65459547 17.3125 50.3125 C17.27932744 52.79494004 17.24483785 55.27736286 17.20898438 57.75976562 C17.12404878 63.83974958 17.05723905 69.91969477 17 76 C11.39 76 5.78 76 0 76 C-0.33 71.38 -0.66 66.76 -1 62 C-2.485 63.8253125 -2.485 63.8253125 -4 65.6875 C-10.14084267 72.68261312 -16.94233663 76.42852232 -26.3125 77.3125 C-35.89226162 76.50065579 -42.69588697 73.42341473 -49 66 C-54.67104645 56.58480963 -55.51607147 44.90363731 -53.46875 34.23046875 C-50.47213182 24.67060531 -44.23257695 18.06056387 -35.6875 13.0625 C-29.5697565 11.29976035 -23.11488385 10.90972113 -17.0625 13.1875 C-13.19329933 15.47743509 -10.99965602 18.00068797 -9 22 C-8.58932846 26.62005487 -9.06335294 29.3545071 -12 33 C-16.11153425 35.51260426 -19.40630078 35.10589055 -24 34 C-25.9375 32.9375 -25.9375 32.9375 -27 31 C-27.4050916 28.26705811 -27.44161946 25.73001123 -27 23 C-25.5625 21.25 -25.5625 21.25 -24 20 C-23.28552357 17.89667109 -23.28552357 17.89667109 -23 16 C-26.53164047 15.67894178 -28.35715051 15.51786288 -31.25 17.6875 C-34.93753066 22.56030838 -35.30816172 27.11751355 -35.30078125 33.08203125 C-35.30506638 33.85504074 -35.3093515 34.62805023 -35.31376648 35.42448425 C-35.31949301 37.05584741 -35.32002242 38.6872361 -35.31567383 40.31860352 C-35.31252325 42.79423439 -35.33596003 45.26865808 -35.36132812 47.74414062 C-35.36360248 49.33593601 -35.36430398 50.92773457 -35.36328125 52.51953125 C-35.372491 53.25001175 -35.38170074 53.98049225 -35.39118958 54.73310852 C-35.33868008 60.66795474 -34.21922199 66.26864986 -30.375 71 C-26.53819081 72.61549861 -23.08687837 72.7069559 -19 72 C-12.29531295 69.26215139 -7.2066591 64.22573289 -3.8828125 57.8605957 C0.47120937 46.80150672 -0.3236324 34.9524152 -0.25 23.25 C-0.22180137 20.99216497 -0.1918686 18.73435091 -0.16015625 16.4765625 C-0.08675464 10.98441289 -0.03689665 5.49251121 0 0 Z " fill="#FAFBFD" transform="translate(213,122)"/>
<path d="M0 0 C3.41726069 1.21797636 6.31701164 2.63402327 8 6 C10.53051481 4.83207009 12.39365277 3.67355624 14.5625 1.875 C19.98914194 -1.08498652 25.42716275 -1.0046747 31.34765625 0.66015625 C35.64059794 2.51374416 37.82151878 4.56787692 40.14454651 8.75160217 C41.89266064 13.34618979 41.48152737 18.20944012 41.390625 23.05859375 C41.38496521 24.20288345 41.37930542 25.34717316 41.37347412 26.52613831 C41.35116956 30.16369301 41.30098168 33.8002454 41.25 37.4375 C41.22992746 39.91079302 41.21167802 42.38410155 41.1953125 44.85742188 C41.15132375 50.90533129 41.08233498 56.95249598 41 63 C35.39 63 29.78 63 24 63 C23.98541748 61.37989014 23.97083496 59.75978027 23.95581055 58.09057617 C23.89792727 52.09132589 23.82069356 46.09245488 23.73754883 40.09350586 C23.70425257 37.49493557 23.67623546 34.89629213 23.65356445 32.29760742 C23.62010549 28.56657681 23.56779271 24.83621939 23.51171875 21.10546875 C23.50532883 19.93976852 23.4989389 18.7740683 23.49235535 17.57304382 C23.47256119 16.49214981 23.45276703 15.4112558 23.43237305 14.29760742 C23.41571846 12.86864388 23.41571846 12.86864388 23.39872742 11.41081238 C23.17752144 8.95579967 23.17752144 8.95579967 21.66438293 7.16108704 C19.91897689 5.69393082 19.91897689 5.69393082 16.9375 6.125 C13.70744585 6.74650413 13.70744585 6.74650413 12 10 C11.67216171 12.44368974 11.67216171 12.44368974 11.68115234 15.20581055 C11.66128265 16.26668381 11.64141296 17.32755707 11.62094116 18.420578 C11.60361435 20.13631767 11.60361435 20.13631767 11.5859375 21.88671875 C11.56657135 23.05886429 11.5472052 24.23100983 11.5272522 25.43867493 C11.46739803 29.1882089 11.42104717 32.93777348 11.375 36.6875 C11.33682564 39.22722705 11.29777424 41.76694107 11.2578125 44.30664062 C11.1616915 50.53765486 11.07768168 56.7687297 11 63 C5.39 63 -0.22 63 -6 63 C-6.01458252 61.34436035 -6.02916504 59.6887207 -6.04418945 57.98291016 C-6.1020223 51.8588262 -6.17925579 45.73511576 -6.26245117 39.61132812 C-6.29577133 36.95741829 -6.32378085 34.30343637 -6.34643555 31.64941406 C-6.37985092 27.84148341 -6.43216085 24.03421762 -6.48828125 20.2265625 C-6.49467117 19.03382721 -6.5010611 17.84109192 -6.50764465 16.61221313 C-6.52743881 15.51122284 -6.54723297 14.41023254 -6.56762695 13.27587891 C-6.57873001 12.30325104 -6.58983307 11.33062317 -6.60127258 10.32852173 C-6.73285263 9.56010956 -6.86443268 8.79169739 -7 8 C-10.8503105 5.43312633 -12.58569763 6.16711276 -17 7 C-17.99824905 9.99474714 -18.15324032 12.07345334 -18.20532227 15.20581055 C-18.22526749 16.26668381 -18.24521271 17.32755707 -18.26576233 18.420578 C-18.28247482 19.56440445 -18.29918732 20.7082309 -18.31640625 21.88671875 C-18.33718735 23.05886429 -18.35796844 24.23100983 -18.37937927 25.43867493 C-18.44483818 29.18822286 -18.50374296 32.93784163 -18.5625 36.6875 C-18.60568868 39.22722091 -18.64930308 41.76693462 -18.69335938 44.30664062 C-18.8005159 50.53768755 -18.90179388 56.76880584 -19 63 C-24.61 63 -30.22 63 -36 63 C-36 42.54 -36 22.08 -36 1 C-31.05 1 -26.1 1 -21 1 C-20.67 2.65 -20.34 4.3 -20 6 C-19.05125 5.195625 -18.1025 4.39125 -17.125 3.5625 C-11.85809112 -0.90292275 -6.75706224 -0.64640264 0 0 Z " fill="#FBFCFD" transform="translate(294,47)"/>
<path d="M0 0 C5.61 0 11.22 0 17 0 C17 24.75 17 49.5 17 75 C11.72 75 6.44 75 1 75 C0.67 74.01 0.34 73.02 0 72 C-0.763125 72.66 -1.52625 73.32 -2.3125 74 C-6.87426929 77.00882655 -11.74454567 76.85727269 -17 76 C-22.8157731 73.72594563 -25.8556462 70.36653459 -29 65 C-31.91749244 56.89585432 -33.91555062 48.63434661 -33 40 C-32.90589844 39.09636719 -32.81179687 38.19273438 -32.71484375 37.26171875 C-31.40949928 28.09896099 -28.07899493 20.90305425 -20.6875 15.15234375 C-16.17350079 12.06986744 -12.4396803 11.52283506 -7 12 C-5.02 12.99 -3.04 13.98 -1 15 C-0.67 10.05 -0.34 5.1 0 0 Z " fill="#FCFDFD" transform="translate(224,35)"/>
<path d="M0 0 C7.30965638 2.784631 13.5124474 7.9563402 16.9921875 15.01171875 C21.29959905 25.78024763 21.36298979 37.39736952 17.32421875 48.23828125 C13.81606463 55.55469707 8.16406198 60.37124687 1 64 C-4.76811332 65.92270444 -10.36208876 65.49504375 -15.91796875 63.171875 C-23.32626645 59.00210143 -29.23500246 52.9377374 -31.67578125 44.7265625 C-34.41466339 32.9139688 -33.69963411 21.75591999 -27.375 11.25 C-20.56156541 1.59478113 -11.36515964 -1.33255536 0 0 Z " fill="#FBFCFD" transform="translate(131,47)"/>
<path d="M0 0 C3.48463812 1.97913913 6.36349793 4.8470957 8.25 8.375 C8.94199648 12.44035347 8.83236289 16.44112608 8.73828125 20.5546875 C8.73120651 21.7225882 8.72413177 22.89048889 8.71684265 24.09378052 C8.68892017 27.81317993 8.62618052 31.53105783 8.5625 35.25 C8.53741459 37.77601988 8.51460185 40.30206343 8.49414062 42.828125 C8.43909965 49.01100028 8.35283723 55.19274243 8.25 61.375 C2.97 61.375 -2.31 61.375 -7.75 61.375 C-8.08 60.055 -8.41 58.735 -8.75 57.375 C-9.86375 58.303125 -9.86375 58.303125 -11 59.25 C-15.91629319 63.04895383 -19.4826205 64.06884782 -25.75 63.375 C-30.4653905 62.49792 -33.80952948 60.93066826 -36.75 57.0625 C-39.91732268 51.2251135 -39.78310558 44.79555986 -38.75 38.375 C-35.72722051 31.10262256 -27.47671157 28.37196819 -20.75 25.375 C-19.68652344 24.88515625 -18.62304688 24.3953125 -17.52734375 23.890625 C-14.94163027 22.702865 -12.34976772 21.53158957 -9.75 20.375 C-9.66925797 17.74938891 -9.6096377 15.12624324 -9.5625 12.5 C-9.53736328 11.75363281 -9.51222656 11.00726563 -9.48632812 10.23828125 C-9.4201236 7.81278172 -9.4201236 7.81278172 -9.75 4.375 C-13.20662331 2.07058446 -14.69857881 2.11639865 -18.75 2.375 C-19.74 2.87 -19.74 2.87 -20.75 3.375 C-20.37095792 6.66575996 -20.37095792 6.66575996 -18.75 9.375 C-18.39654225 13.1216522 -18.24976347 15.52677284 -20.1875 18.8125 C-23.99362301 21.13330672 -27.40846194 21.13974799 -31.75 20.375 C-34.3125 18.875 -34.3125 18.875 -35.75 16.375 C-36.31040524 11.96180872 -36.39034536 9.62658412 -34.375 5.6875 C-25.2896672 -2.31624556 -11.41938635 -5.14523682 0 0 Z " fill="#FBFCFD" transform="translate(385.75,48.625)"/>
<path d="M0 0 C3.40712129 2.42429784 5.14801726 3.70672612 7.25 7.3125 C7.80828688 11.41501924 7.71448423 15.47984863 7.640625 19.61328125 C7.63496521 20.80479294 7.62930542 21.99630463 7.62347412 23.22392273 C7.60110685 27.02469269 7.55090685 30.82451557 7.5 34.625 C7.47993559 37.20376242 7.46168472 39.78253963 7.4453125 42.36132812 C7.40124042 48.67874962 7.33220778 54.9954643 7.25 61.3125 C2.3 61.3125 -2.65 61.3125 -7.75 61.3125 C-8.245 58.8375 -8.245 58.8375 -8.75 56.3125 C-9.45125 57.09625 -10.1525 57.88 -10.875 58.6875 C-14.83850986 62.30635683 -17.9057608 63.14484189 -23.1875 63.625 C-28.28848842 63.17754488 -32.08097979 61.66575963 -36.0625 58.4375 C-39.86764757 53.64583269 -40.18986558 48.89530367 -40.0625 42.96484375 C-39.38744388 37.23530497 -35.7822263 34.07874808 -31.51123047 30.56982422 C-28.4483254 28.38324797 -25.08856399 26.99547731 -21.625 25.5625 C-20.57119141 25.10810547 -20.57119141 25.10810547 -19.49609375 24.64453125 C-16.27964166 23.27647507 -13.15277301 22.09912725 -9.75 21.3125 C-9.6690687 18.70771117 -9.60954566 16.10543347 -9.5625 13.5 C-9.53736328 12.76201172 -9.51222656 12.02402344 -9.48632812 11.26367188 C-9.39294978 7.06112356 -9.39294978 7.06112356 -11.0703125 3.31640625 C-13.64285722 1.77886208 -15.82435046 2.06350855 -18.75 2.3125 C-19.74 2.8075 -19.74 2.8075 -20.75 3.3125 C-20.47459296 7.13063447 -20.47459296 7.13063447 -18.75 10.3125 C-18.375 13.125 -18.375 13.125 -18.75 16.3125 C-20.8510459 18.807492 -22.46837538 20.0360205 -25.6875 20.73046875 C-29.70167377 21.01176502 -31.38814694 20.56881258 -34.75 18.1875 C-36.75 15.3125 -36.75 15.3125 -37.4375 12.4375 C-36.2578889 7.07563139 -33.24964663 3.92685511 -28.6875 0.98046875 C-20.50365491 -2.93174098 -8.40638633 -3.85686264 0 0 Z " fill="#FBFCFD" transform="translate(139.75,135.6875)"/>
<path d="M0 0 C5.67458259 1.89152753 9.32628019 5.65256038 12 11 C12.09039906 12.6648064 12.11755257 14.33323421 12.11352539 16.00048828 C12.11344986 17.04141632 12.11337433 18.08234436 12.11329651 19.15481567 C12.10813522 20.28192963 12.10297394 21.40904358 12.09765625 22.5703125 C12.0962413 23.72167694 12.09482635 24.87304138 12.09336853 26.05929565 C12.08775716 29.74788986 12.0752027 33.43642405 12.0625 37.125 C12.05748647 39.62109288 12.05292331 42.1171867 12.04882812 44.61328125 C12.03778403 50.74221073 12.02051173 56.87109518 12 63 C6.39 63 0.78 63 -5 63 C-5.02187378 60.56983521 -5.02187378 60.56983521 -5.04418945 58.09057617 C-5.10207273 52.09132589 -5.17930644 46.09245488 -5.26245117 40.09350586 C-5.29574743 37.49493557 -5.32376454 34.89629213 -5.34643555 32.29760742 C-5.37989451 28.56657681 -5.43220729 24.83621939 -5.48828125 21.10546875 C-5.49467117 19.93976852 -5.5010611 18.7740683 -5.50764465 17.57304382 C-5.52743881 16.49214981 -5.54723297 15.4112558 -5.56762695 14.29760742 C-5.57873001 13.34496506 -5.58983307 12.39232269 -5.60127258 11.41081238 C-6.06898655 8.58288891 -6.71818053 7.68491364 -9 6 C-11.45672892 5.33314062 -11.45672892 5.33314062 -14 6 C-16.61974732 8.20954528 -17.85173083 10.05457909 -18.38635254 13.46353149 C-18.56037 16.60207016 -18.60590075 19.71989503 -18.609375 22.86328125 C-18.62591125 24.01040085 -18.64244751 25.15752045 -18.65948486 26.33940125 C-18.70800391 29.99715509 -18.72934551 33.65449303 -18.75 37.3125 C-18.77815625 39.79494284 -18.80808318 42.27736628 -18.83984375 44.75976562 C-18.91376463 50.83980953 -18.96331597 56.919622 -19 63 C-24.61 63 -30.22 63 -36 63 C-36 42.54 -36 22.08 -36 1 C-30.72 1 -25.44 1 -20 1 C-19.67 2.65 -19.34 4.3 -19 6 C-18.05125 5.195625 -17.1025 4.39125 -16.125 3.5625 C-11.04979666 -0.74038979 -6.51748593 -0.49850459 0 0 Z " fill="#FCFCFD" transform="translate(446,47)"/>
<path d="M0 0 C1.07314453 0.00322266 2.14628906 0.00644531 3.25195312 0.00976562 C4.37150391 0.01814453 5.49105469 0.02652344 6.64453125 0.03515625 C8.34125977 0.04192383 8.34125977 0.04192383 10.07226562 0.04882812 C12.86721001 0.06062114 15.66212724 0.07855668 18.45703125 0.09765625 C18.45703125 5.70765625 18.45703125 11.31765625 18.45703125 17.09765625 C14.45703125 16.09765625 14.45703125 16.09765625 13.3671875 14.390625 C13.08746094 13.69582031 12.80773437 13.00101563 12.51953125 12.28515625 C10.74377485 8.46625156 9.26712596 6.17588973 5.45703125 4.09765625 C1.73413381 3.45116508 -1.49725061 3.67936899 -5.04296875 5.09765625 C-6.96852033 7.66505835 -7.29853674 9.87211945 -7.08984375 13.0546875 C-6.00326775 17.113825 -2.92837716 19.01513299 0.45703125 21.09765625 C2.28072399 22.07401384 4.11899567 23.01747542 5.96240234 23.95605469 C19.60172123 30.90759984 19.60172123 30.90759984 22.45703125 37.09765625 C23.4851926 42.59831949 23.42607508 47.9795304 20.83203125 53.03515625 C15.55516938 59.83953077 10.78653234 62.35071377 2.45703125 64.09765625 C-1.59897852 64.42392517 -5.6026462 64.38521029 -9.66796875 64.28515625 C-13.25671875 64.22328125 -16.84546875 64.16140625 -20.54296875 64.09765625 C-20.54296875 56.17765625 -20.54296875 48.25765625 -20.54296875 40.09765625 C-19.22296875 40.09765625 -17.90296875 40.09765625 -16.54296875 40.09765625 C-16.31222656 40.89429688 -16.08148438 41.6909375 -15.84375 42.51171875 C-13.91675713 48.77254143 -12.26892887 53.4960635 -7.54296875 58.09765625 C-5.21700929 59.26063598 -3.75573644 59.26366316 -1.16796875 59.28515625 C-0.39710938 59.29933594 0.37375 59.31351563 1.16796875 59.328125 C3.71480715 59.0717027 5.29654634 58.45390779 7.45703125 57.09765625 C9.04738244 53.91695388 9.24640573 50.51435174 8.45703125 47.09765625 C4.3636705 41.03371479 -0.87288252 38.33771507 -7.21679688 34.97460938 C-12.9278717 31.81194305 -17.57113955 28.04131464 -20.54296875 22.09765625 C-21.20539129 16.76569776 -20.91558649 12.23376962 -17.953125 7.66796875 C-13.13887427 2.30694716 -7.06238012 -0.03736709 0 0 Z " fill="#F9FAFC" transform="translate(294.54296875,133.90234375)"/>
<path d="M0 0 C5.94 0 11.88 0 18 0 C18 25.08 18 50.16 18 76 C12.06 76 6.12 76 0 76 C0 50.92 0 25.84 0 0 Z " fill="#F8FAFC" transform="translate(162,35)"/>
<path d="M0 0 C3.15222855 2.38547026 4.27155856 4.19208309 5 8 C5.09637402 9.3612569 5.14773308 10.72622193 5.16113281 12.09082031 C5.17074036 12.88554749 5.1803479 13.68027466 5.19024658 14.49908447 C5.19449646 15.35016785 5.19874634 16.20125122 5.203125 17.078125 C5.20882507 17.96352966 5.21452515 18.84893433 5.22039795 19.76116943 C5.22983391 21.63389903 5.23637635 23.50664513 5.24023438 25.37939453 C5.24991796 28.22588565 5.28094543 31.07164763 5.3125 33.91796875 C5.31903294 35.74218324 5.32428227 37.56640286 5.328125 39.390625 C5.3404718 40.23361145 5.3528186 41.0765979 5.36553955 41.94512939 C5.34583735 47.24528543 4.99588331 54.00411669 1 58 C-6.22330097 58.46601942 -6.22330097 58.46601942 -8.875 56.875 C-12.09606886 51.5065519 -12.3077173 46.22954609 -12.30078125 40.1640625 C-12.30506638 39.32587982 -12.3093515 38.48769714 -12.31376648 37.62411499 C-12.31948833 35.85749206 -12.32002592 34.09084558 -12.31567383 32.32421875 C-12.31251788 29.6402103 -12.33598536 26.95730964 -12.36132812 24.2734375 C-12.36360195 22.54948054 -12.36430423 20.82552065 -12.36328125 19.1015625 C-12.372491 18.30859772 -12.38170074 17.51563293 -12.39118958 16.69863892 C-12.34597238 11.17541579 -11.35166553 7.02337 -9 2 C-5.50875983 -0.32749345 -4.10777749 -0.50299316 0 0 Z " fill="#789DC8" transform="translate(128,50)"/>
<path d="M0 0 C3.60207863 2.46999677 4.6257318 5.20535669 5.60083008 9.37353516 C6.38417956 14.52783104 6.29379177 19.72311123 6.26074219 24.92651367 C6.25004273 26.92950063 6.26169555 28.93256575 6.2734375 30.93554688 C6.2392224 48.03454331 6.2392224 48.03454331 1.6875 54.0625 C-1.23954553 56.17269561 -2.48370837 56.50232738 -6 56 C-9.70909495 50.46897409 -10.58014216 46.62551463 -10.4609375 40.03125 C-10.46002106 39.1921106 -10.45910461 38.35297119 -10.4581604 37.48840332 C-10.45214879 35.72349349 -10.43647666 33.95859269 -10.41162109 32.19384766 C-10.37510537 29.50775112 -10.37060238 26.82303779 -10.37109375 24.13671875 C-10.3612608 22.4140507 -10.34960303 20.69139191 -10.3359375 18.96875 C-10.33371185 18.17376099 -10.33148621 17.37877197 -10.32919312 16.55969238 C-10.23701183 11.08585559 -9.8459683 5.72500083 -6.6875 1.0625 C-4.25175898 -0.47111472 -2.82517764 -0.4823474 0 0 Z " fill="#799EC9" transform="translate(219,51)"/>
<path d="M0 0 C0.08825361 3.47900249 0.14080635 6.95771117 0.1875 10.4375 C0.22520508 11.89833008 0.22520508 11.89833008 0.26367188 13.38867188 C0.33414995 20.41298712 -0.03086269 27.63497772 -4.875 33.125 C-7.65962983 34.27161228 -9.18732333 33.98823775 -12 33 C-13.80248065 29.3950387 -13.2703256 25.22001652 -13.3125 21.25 C-13.34150391 20.35539062 -13.37050781 19.46078125 -13.40039062 18.5390625 C-13.45512199 12.83016059 -12.89261786 9.47823293 -9 5 C-3.48837209 0 -3.48837209 0 0 0 Z " fill="#7DA0CA" transform="translate(131,160)"/>
<path d="M0 0 C0.08796382 3.66651247 0.14071247 7.33274918 0.1875 11 C0.22520508 12.54494141 0.22520508 12.54494141 0.26367188 14.12109375 C0.32459369 20.49757749 -0.28714886 25.20529529 -3 31 C-4 32 -4 32 -7.4375 32.25 C-8.613125 32.1675 -9.78875 32.085 -11 32 C-14.85803745 26.21294382 -13.62467812 17.21864539 -12.4375 10.5 C-10.4634581 5.69363711 -5.70155288 0 0 0 Z " fill="#799DC9" transform="translate(377,74)"/>
</svg>
