<svg version="1.1" id="Layer_1" xmlns="http://www.w3.org/2000/svg" xmlns:xlink="http://www.w3.org/1999/xlink" x="0px" y="0px"
	 width="100%" viewBox="0 0 1024 560" enable-background="new 0 0 1024 560" xml:space="preserve">
<path fill="#000000" opacity="1.000000" stroke="none" 
	d="
M673.531372,0.999996 
	C673.362488,1.500280 672.724976,2.000569 672.067566,2.516423 
	C677.923401,8.281976 682.287720,15.167069 689.146729,19.668497 
	C691.855164,21.446016 693.187256,24.585176 693.907959,27.691637 
	C694.691162,31.067799 696.079407,33.941364 698.705505,36.227451 
	C701.023743,38.245541 701.492371,40.873512 700.212219,43.496452 
	C696.580811,50.936863 698.467163,57.584198 702.305298,64.327156 
	C704.259460,67.760132 705.308594,71.720467 706.662659,75.479919 
	C708.708191,81.158768 712.628845,84.921188 718.117859,87.267906 
	C726.531311,90.864975 733.270935,96.954636 740.065796,102.790855 
	C748.612122,110.131447 758.027649,113.159889 769.173523,111.227371 
	C774.908936,110.232941 780.752747,109.881737 786.523071,109.066490 
	C801.318359,106.976158 813.567200,112.746498 825.954407,120.114578 
	C840.943115,129.030136 852.555847,141.585739 865.431580,152.832199 
	C873.093445,159.524490 880.349670,166.407837 886.351196,174.694473 
	C893.685425,184.821274 904.613403,189.493820 916.263184,192.452133 
	C934.992798,197.208313 948.105103,208.336273 956.059448,225.895584 
	C962.586365,240.304123 968.763977,254.829147 973.599060,269.911194 
	C975.809448,276.806030 975.332458,283.777710 974.491455,290.703003 
	C971.763489,313.164185 969.172363,335.653778 965.751160,358.013458 
	C964.274536,367.664429 960.833130,376.959229 954.295105,384.745422 
	C950.565979,389.186554 949.298340,395.395752 944.467651,399.078674 
	C934.452942,406.713867 927.996033,417.762970 918.561096,425.939178 
	C913.914856,429.965698 909.344604,434.108093 904.441895,437.802582 
	C899.518066,441.513062 896.235535,446.437927 892.805481,451.369049 
	C886.820557,459.973053 881.823730,469.676300 873.749634,476.295776 
	C859.140503,488.273041 844.337891,500.263702 824.556519,503.412048 
	C817.756409,504.494354 811.263855,507.632202 804.694153,510.006256 
	C797.894897,512.463196 790.936707,513.827820 783.707336,514.076233 
	C775.837158,514.346619 768.371460,517.128052 760.597107,518.058716 
	C750.349243,519.285522 739.697754,518.428711 729.876038,521.456238 
	C718.911621,524.835999 708.212036,527.162598 696.601562,526.818176 
	C686.999023,526.533447 677.549194,529.356384 668.300354,532.375977 
	C649.059753,538.657776 630.190125,536.580322 611.594421,529.305420 
	C605.577942,526.951721 599.583008,524.810547 593.779358,521.747131 
	C586.409058,517.856750 577.574768,518.548157 569.414368,517.040039 
	C557.896545,514.911377 546.330505,515.086243 534.688293,514.773926 
	C514.424316,514.230347 494.130402,512.717285 474.417999,507.166443 
	C471.221863,506.266418 467.902954,505.795288 464.633026,505.166168 
	C459.866302,504.248993 455.615204,502.652008 451.532135,499.609558 
	C443.885315,493.911560 435.060516,494.891510 426.665222,497.889771 
	C421.731689,499.651794 417.065308,500.266510 412.038666,498.943939 
	C406.523987,497.492920 400.975281,497.518738 395.240814,497.765442 
	C381.116272,498.373077 367.241089,495.501312 354.065613,490.893585 
	C344.174011,487.434265 334.911835,484.967377 324.561646,488.272369 
	C319.171204,489.993683 313.661194,488.614685 308.600311,486.116180 
	C305.253265,484.463776 301.714996,484.646973 298.310425,485.204865 
	C291.667023,486.293457 285.013336,486.061737 278.363129,485.912964 
	C269.808472,485.721619 263.023743,482.554993 258.681305,474.560028 
	C255.993942,469.612305 252.214584,465.322723 247.712982,461.727783 
	C244.202988,458.924835 241.210678,455.582611 238.288330,452.126343 
	C231.260651,443.814758 222.923050,437.078979 213.454941,431.550415 
	C204.008606,426.034546 194.466553,420.567047 186.819824,412.399597 
	C179.300400,404.368073 170.958572,397.190887 162.216385,390.501099 
	C154.788208,384.816833 151.146423,377.133942 149.447586,368.071991 
	C145.580307,347.443298 140.419571,327.208435 132.102936,307.782318 
	C127.761177,297.640778 125.387215,286.704956 129.163315,275.631958 
	C131.644943,268.354797 136.086334,261.992950 139.575577,255.183151 
	C145.122314,244.357773 152.885513,234.854874 158.198639,223.871140 
	C161.062317,217.951111 166.872025,214.289917 170.333878,208.703842 
	C175.894592,199.731049 183.812241,192.461258 188.111588,182.427231 
	C190.587784,176.648163 197.270599,173.934464 202.206711,170.117065 
	C213.636292,161.277924 226.185165,154.527481 240.826569,152.461182 
	C244.620178,151.925827 247.462509,149.471741 249.887985,146.616440 
	C254.375687,141.333496 259.941742,138.182968 266.830811,136.854630 
	C271.626221,135.929993 275.568268,132.929886 279.104004,129.526810 
	C284.257111,124.567039 288.878937,119.059113 294.787140,114.877914 
	C300.214752,111.036797 305.998932,109.304886 312.663239,110.414536 
	C343.262360,115.509506 373.091614,112.728378 402.853180,103.739082 
	C418.845520,98.908707 435.834320,97.382980 452.755768,98.349075 
	C460.903473,98.814255 469.001556,99.767021 476.941772,101.848679 
	C488.787720,104.954308 500.128510,101.082558 511.426086,98.654671 
	C522.637329,96.245354 533.898254,93.746643 544.676086,89.620750 
	C547.629272,88.490234 550.505737,87.100578 553.533264,86.234612 
	C561.135376,84.060112 564.545898,78.285309 566.810181,71.413567 
	C567.018616,70.781006 567.260742,70.148422 567.370178,69.496208 
	C568.019043,65.628174 573.495422,61.619820 570.774414,58.801414 
	C566.510742,54.385143 562.045837,49.109928 554.998230,48.262661 
	C547.209473,47.326294 539.738220,45.228153 532.453491,42.229961 
	C528.761658,40.710503 527.265442,38.719097 528.868774,35.019337 
	C530.422241,31.434462 531.312500,27.783190 530.980652,23.863245 
	C530.783081,21.529264 531.994446,19.779451 533.310425,17.989281 
	C536.867004,13.150882 538.690979,7.739434 538.121521,1.333300 
	C583.020874,1.000000 628.041809,1.000000 673.531372,0.999996 
M441.684723,361.446106 
	C441.684723,328.742676 441.684723,296.039215 441.684723,263.192230 
	C444.307068,263.573547 444.215454,265.158295 444.683990,266.313080 
	C454.229095,289.839325 463.776581,313.364685 473.298431,336.900391 
	C477.909058,348.296783 482.500854,359.701050 487.029724,371.130096 
	C488.301971,374.340790 490.190948,376.615356 493.900604,376.635071 
	C499.733154,376.666046 505.566589,376.679138 511.398590,376.609436 
	C514.933838,376.567169 517.307312,374.771301 518.615784,371.475555 
	C531.404846,339.262360 544.116882,307.017914 557.114014,274.888794 
	C558.885620,270.509247 560.284241,265.734009 563.501526,261.367340 
	C564.718994,264.104095 564.331421,266.133270 564.335022,268.098938 
	C564.370178,287.264008 564.352295,306.429138 564.349487,325.594269 
	C564.347351,340.259735 564.378662,354.925323 564.319824,369.590576 
	C564.304810,373.322449 565.075439,376.453278 569.501404,376.591003 
	C575.160583,376.767059 580.836975,376.759735 586.493469,376.528015 
	C590.542480,376.362122 592.720337,374.348999 592.713440,369.826874 
	C592.626465,312.664917 592.630066,255.502747 592.698486,198.340744 
	C592.704163,193.622559 590.331238,191.610641 586.077820,191.419617 
	C581.753418,191.225403 577.394470,191.624847 573.085876,191.298477 
	C567.124817,190.846970 563.813721,193.712936 561.672241,198.927414 
	C554.796143,215.671005 547.691345,232.320999 540.855896,249.080948 
	C529.630493,276.604431 518.575500,304.197357 507.364288,331.726654 
	C506.116516,334.790588 505.373108,338.227783 502.460510,340.971466 
	C501.665222,339.376007 501.005707,338.233246 500.506378,337.024261 
	C493.282104,319.532501 486.047455,302.044891 478.878632,284.530365 
	C467.122467,255.808304 455.356445,227.089935 443.736206,198.312820 
	C441.718903,193.317047 438.682739,190.777481 433.143799,191.284805 
	C430.003906,191.572418 426.815765,191.330399 423.649353,191.331345 
	C414.025299,191.334229 413.331696,192.001053 413.330414,201.434341 
	C413.323090,255.096725 413.301361,308.759094 413.333405,362.421478 
	C413.342468,377.587982 411.419281,376.720825 427.533173,376.684296 
	C441.626434,376.652374 441.677155,376.620453 441.684723,361.446106 
M774.179626,379.592621 
	C787.406372,378.878601 798.078247,372.709991 807.403320,363.381104 
	C808.612549,365.397858 808.201965,367.103149 808.423767,368.694122 
	C809.337341,375.249420 810.850952,376.592712 817.407776,376.642273 
	C821.238525,376.671204 825.072266,376.751678 828.899780,376.640381 
	C834.233582,376.485382 836.583252,373.747833 835.391235,368.532715 
	C834.706604,365.537506 834.750549,362.601990 834.675110,359.622406 
	C834.068909,335.682831 836.103577,311.688782 833.576538,287.799927 
	C832.200195,274.788757 826.507385,264.159332 814.932800,257.005981 
	C802.947632,249.598907 789.915955,247.843781 776.194702,248.320084 
	C758.646484,248.929230 743.851379,255.159576 732.409363,268.709229 
	C726.595154,275.594299 727.111816,278.144135 735.025879,282.407928 
	C737.221924,283.591064 739.340820,284.921783 741.564270,286.048370 
	C744.795227,287.685486 747.783875,287.313843 750.004028,284.302216 
	C758.687805,272.522980 771.016541,269.784790 784.547485,270.743073 
	C799.455078,271.798798 807.459534,280.720367 807.413513,294.949463 
	C807.400330,299.015259 806.170898,300.512695 801.993286,300.442780 
	C789.504517,300.233795 777.002441,300.103088 764.519775,300.451294 
	C753.258667,300.765411 742.893188,304.307648 734.324707,311.818970 
	C723.048523,321.703918 721.856384,334.831635 723.927185,348.471130 
	C725.379089,358.034332 730.331909,365.747711 738.537720,371.313049 
	C749.107849,378.481903 760.804016,380.494049 774.179626,379.592621 
M673.323364,304.499939 
	C673.325439,326.153381 673.312500,347.806854 673.339783,369.460266 
	C673.347107,375.234650 674.621277,376.521484 680.337769,376.624390 
	C684.500549,376.699341 688.666565,376.714508 692.829346,376.647949 
	C699.259216,376.545135 700.649231,375.100922 700.652039,368.573822 
	C700.661499,346.420715 700.642273,324.267639 700.643127,302.114532 
	C700.644409,267.968811 700.662598,233.823059 700.650696,199.677322 
	C700.648376,193.133331 698.947388,191.463745 692.345093,191.374008 
	C689.014404,191.328720 685.682556,191.343597 682.351379,191.363556 
	C674.997986,191.407639 673.334778,193.077164 673.331726,200.562958 
	C673.317810,234.875275 673.324585,269.187592 673.323364,304.499939 
M646.653503,358.485535 
	C646.658813,326.652405 646.665649,294.819275 646.665588,262.986145 
	C646.665588,260.986755 646.680115,258.983368 646.565979,256.988831 
	C646.361633,253.418930 644.443176,251.468506 640.834290,251.415878 
	C636.335266,251.350250 631.833740,251.321198 627.335205,251.393478 
	C621.131042,251.493164 619.368042,253.287750 619.358093,259.516296 
	C619.329407,277.516144 619.341614,295.516052 619.341370,313.515930 
	C619.341187,332.182495 619.328003,350.849060 619.357666,369.515564 
	C619.366699,375.189301 620.755615,376.568390 626.448608,376.627808 
	C630.780884,376.673035 635.125549,376.782867 639.444397,376.524811 
	C644.813477,376.203979 646.463074,374.351440 646.627747,368.977356 
	C646.724670,365.813599 646.653320,362.644684 646.653503,358.485535 
M234.351013,317.302277 
	C232.278030,314.517181 230.303223,311.757202 227.369400,309.629761 
	C219.462265,303.895905 209.004929,303.835876 200.320084,309.877716 
	C193.771088,314.433746 189.729019,325.569031 191.939697,332.964600 
	C195.118195,343.597809 203.082764,350.283752 212.985397,350.631622 
	C230.668030,351.252777 241.332870,335.262573 234.351013,317.302277 
M208.742523,220.160385 
	C193.354965,224.915024 187.428070,238.723358 194.597275,253.115585 
	C198.376709,260.702789 208.804108,265.875549 217.703613,264.578094 
	C225.796082,263.398254 235.093567,254.915222 236.450699,247.279648 
	C239.554810,229.815277 225.711395,216.572708 208.742523,220.160385 
M618.155823,218.275604 
	C618.906738,220.266312 620.589417,221.469315 622.197083,222.579666 
	C628.425293,226.881348 634.944458,227.859329 641.774231,223.876129 
	C648.060364,220.209976 651.410706,214.596375 651.296204,207.496124 
	C651.174377,199.940598 645.353333,192.811264 638.243042,190.900726 
	C630.851624,188.914673 624.419800,190.938370 619.380249,196.751587 
	C614.379333,202.520294 613.869507,210.145874 618.155823,218.275604 
M292.833282,292.197845 
	C296.551331,284.949738 294.622681,278.239502 289.510895,272.941193 
	C284.857819,268.118347 278.624268,266.010101 271.707947,268.531372 
	C260.842072,272.492371 255.619507,285.867432 263.455780,295.574005 
	C271.115997,305.062469 286.445465,304.588531 292.833282,292.197845 
M278.623291,345.838348 
	C277.574554,346.335968 276.516144,346.814209 275.478638,347.334259 
	C267.276215,351.445618 263.780304,359.582336 266.628845,367.911774 
	C269.444550,376.145172 278.002014,381.074127 286.786682,379.522400 
	C294.575836,378.146515 301.085754,369.478790 300.662842,361.246155 
	C300.192139,352.082977 290.888397,343.441803 278.623291,345.838348 
M269.880585,218.548813 
	C272.109131,220.874680 274.786865,222.571747 277.781128,223.641953 
	C285.313873,226.334305 291.302216,223.658234 296.588806,218.199432 
	C300.388245,214.276215 301.905365,207.648483 299.599030,202.049103 
	C296.967346,195.659729 292.550201,191.168365 285.336395,190.412933 
	C278.076172,189.652634 272.232666,192.423080 268.343292,198.560333 
	C264.156097,205.167557 265.021088,211.761093 269.880585,218.548813 
M261.925201,311.476440 
	C261.095276,311.449829 260.264374,311.382568 259.435608,311.402863 
	C250.859589,311.612549 243.081940,318.949463 242.510406,327.353851 
	C242.014694,334.643311 248.890976,343.008728 256.602753,344.497986 
	C264.681335,346.058075 273.292206,340.471344 275.653839,332.137573 
	C278.273956,322.891785 273.471832,315.284088 261.925201,311.476440 
M275.650299,237.822357 
	C272.538116,228.398743 263.522675,223.236984 255.111160,226.062714 
	C246.039215,229.110321 240.776291,238.616119 243.610321,246.835419 
	C246.630829,255.595520 255.384109,260.464783 263.742126,258.034363 
	C272.590546,255.461334 277.924438,246.867798 275.650299,237.822357 
M229.454163,368.932648 
	C230.256699,369.982666 230.931030,371.169800 231.882980,372.060028 
	C237.301041,377.126831 244.704041,377.465179 250.347565,372.990601 
	C255.511017,368.896606 256.958130,362.666595 254.049911,357.051086 
	C250.397873,349.999329 243.135895,347.176392 236.182999,350.105652 
	C229.218399,353.039917 226.375488,360.400116 229.454163,368.932648 
M233.872879,272.201477 
	C227.520401,275.348846 223.730865,280.569733 224.457687,286.024780 
	C225.177643,291.428253 228.036758,295.641449 233.287262,297.650818 
	C239.034027,299.850159 244.909500,298.236969 248.607468,293.793884 
	C252.378922,289.262512 252.792999,282.995789 249.682190,277.528564 
	C246.806183,272.473969 241.918137,270.660706 233.872879,272.201477 
M229.973068,200.536896 
	C227.459824,204.258331 227.081665,208.202393 228.933701,212.276535 
	C231.328156,217.543900 235.513275,220.809647 241.214493,221.131668 
	C246.128540,221.409241 250.075409,218.819000 252.873322,214.713593 
	C256.063416,210.032745 256.635864,205.408859 253.271729,200.381729 
	C248.490860,193.237518 237.960922,190.034546 229.973068,200.536896 
M214.010269,292.433075 
	C217.460892,287.400482 217.672348,281.547821 214.540192,277.766144 
	C211.286926,273.838257 205.236801,272.346649 200.558655,274.319061 
	C195.472641,276.463440 192.652420,281.123596 193.397324,286.572327 
	C194.004395,291.012848 196.465500,294.027863 200.713791,295.771515 
	C205.725952,297.828735 209.714111,296.104095 214.010269,292.433075 
M304.839874,337.341797 
	C309.902527,346.269775 314.303284,355.642365 321.775391,362.990448 
	C318.161285,353.000397 312.574524,344.152832 306.701263,335.496338 
	C305.781799,334.141113 304.683685,335.200836 304.839874,337.341797 
M330.427307,243.626404 
	C334.250031,243.169067 338.424622,244.659897 342.607422,241.923111 
	C336.339203,239.324631 313.405182,239.908875 310.054138,242.559555 
	C310.977570,242.851028 311.740814,243.284332 312.515442,243.305649 
	C318.159363,243.460907 323.805603,243.533325 330.427307,243.626404 
M328.358490,329.659760 
	C332.680450,329.643005 336.999359,329.607605 342.139465,328.100220 
	C335.746338,325.207062 312.139771,325.853088 308.827393,329.661682 
	C315.684845,329.661682 321.538300,329.661682 328.358490,329.659760 
M369.465363,275.779449 
	C370.251617,276.743011 371.112061,277.436920 373.089630,276.184998 
	C368.284851,266.838989 363.403320,257.577820 355.851135,249.972992 
	C359.017548,259.096283 364.550262,266.892090 369.465363,275.779449 
M323.520538,365.834229 
	C320.864319,367.752838 319.250305,370.026764 321.192535,373.336975 
	C322.550842,375.651947 324.599640,377.171906 327.293304,376.296478 
	C330.201141,375.351471 331.934174,373.064972 331.534302,369.857574 
	C330.979858,365.409882 327.797638,365.031372 323.520538,365.834229 
M320.840515,273.330139 
	C316.368103,265.083618 312.236450,256.611877 305.445343,249.870834 
	C308.485199,260.106476 314.859314,268.361267 320.627441,277.653046 
	C321.757294,275.815521 321.399353,274.888672 320.840515,273.330139 
M306.235596,326.970856 
	C304.842926,323.483154 302.595490,321.368286 298.616669,322.783752 
	C295.402283,323.927277 294.645142,326.518738 295.396820,329.603577 
	C296.022461,332.171143 297.931396,333.500793 300.427582,333.572113 
	C304.333649,333.683685 305.825775,331.059631 306.235596,326.970856 
M320.481750,207.862335 
	C313.178131,215.609085 309.038940,225.162170 303.963562,234.976700 
	C307.287506,234.720276 308.116211,232.845871 309.005737,231.406281 
	C312.316895,226.047607 315.458282,220.581726 318.566864,215.101334 
	C319.814209,212.902283 321.833771,210.913269 320.481750,207.862335 
M345.489441,242.409073 
	C345.767944,243.953339 346.622284,245.157059 347.816193,246.103210 
	C350.011658,247.843155 352.358398,248.091888 354.674377,246.406998 
	C356.673462,244.952682 358.041748,243.040146 356.967773,240.467789 
	C355.852264,237.795959 353.712708,236.238129 350.741333,236.429977 
	C347.553955,236.635818 346.457153,239.144867 345.489441,242.409073 
M303.235840,237.125336 
	C300.664276,235.656204 298.401459,236.345535 296.510284,238.316620 
	C294.846008,240.051254 294.856110,242.295746 295.550507,244.395370 
	C296.371979,246.879410 298.825897,246.972412 300.892639,247.300156 
	C303.448029,247.705353 304.762085,245.914307 305.870911,243.958084 
	C307.509003,241.068130 305.621582,239.324402 303.235840,237.125336 
M347.443634,233.213104 
	C342.805573,224.525940 338.195648,215.820724 331.704529,208.284470 
	C334.669128,218.018112 339.884033,226.483200 345.750214,234.574631 
	C346.355438,235.409439 347.221252,234.807098 347.443634,233.213104 
M321.986450,202.794327 
	C326.592896,206.170502 331.062256,204.961472 331.592804,200.198441 
	C331.906677,197.380417 330.509308,195.440063 328.275360,194.049438 
	C326.281281,192.808105 324.351593,193.566574 322.813721,194.911102 
	C320.459381,196.969452 319.651703,199.484421 321.986450,202.794327 
M305.707520,316.755280 
	C305.438873,317.941010 304.239685,319.133087 305.699249,320.331696 
	C309.576935,317.359192 320.588776,298.764893 321.132141,293.305786 
	C314.719238,299.974060 310.918762,308.444000 305.707520,316.755280 
M347.024811,331.259308 
	C349.162109,333.796906 351.659180,334.525696 354.323090,332.242462 
	C356.474274,330.398682 357.644440,327.883514 356.141632,325.191040 
	C354.951782,323.059265 352.686920,321.791229 350.236877,322.634460 
	C347.053406,323.730133 345.649597,326.232849 346.322235,329.676514 
	C346.384766,329.996765 346.536621,330.299561 347.024811,331.259308 
M371.632874,286.958038 
	C373.258575,289.948181 375.882996,290.488861 378.832916,289.592407 
	C380.910706,288.960968 381.878265,287.211609 382.173218,285.080078 
	C382.496735,282.742493 381.151825,281.293304 379.431458,280.210358 
	C375.837036,277.947815 372.222565,280.719727 371.632874,286.958038 
M323.153717,280.612885 
	C321.286377,282.835541 319.451050,285.236664 321.845276,288.010071 
	C323.640045,290.089081 326.134521,291.416534 328.872620,289.669495 
	C331.565460,287.951294 331.479767,285.037689 330.564911,282.555542 
	C329.390625,279.369476 326.757721,278.751068 323.153717,280.612885 
M363.888550,304.336945 
	C360.805878,309.287140 357.163605,313.953979 356.152649,319.977936 
	C363.382385,312.215485 367.873810,302.826752 372.897278,293.756348 
	C372.335388,293.394135 371.773499,293.031921 371.211609,292.669739 
	C368.904724,296.354736 366.597809,300.039703 363.888550,304.336945 
M336.501984,356.032501 
	C339.826538,350.035828 343.888245,344.416748 346.593109,337.429321 
	C342.212616,339.290283 330.878448,358.241760 331.184204,362.650726 
	C334.061646,361.524658 334.703552,358.755035 336.501984,356.032501 
M334.406952,297.079651 
	C333.346802,295.652344 333.245789,293.156158 329.913116,293.414032 
	C334.590668,301.495239 338.074005,309.772980 344.694489,316.115570 
	C342.203003,309.510010 339.097076,303.267059 334.406952,297.079651 
M343.753265,252.867538 
	C338.995941,259.689758 334.783173,266.801849 332.079285,274.742859 
	C337.983185,268.689636 341.868683,261.335724 345.687561,253.956696 
	C346.164948,253.034241 345.769287,251.915024 343.753265,252.867538 
M289.183411,311.433014 
	C291.505829,314.606537 292.311920,319.014862 296.792145,320.518677 
	C294.478668,314.693817 292.576385,308.666260 286.640411,304.023651 
	C286.226532,307.403107 288.092438,308.906525 289.183411,311.433014 
M316.715057,372.100708 
	C317.717712,371.257629 318.540039,369.859222 316.706390,369.678711 
	C312.188995,369.234070 307.536407,368.703308 303.234344,371.066742 
	C307.404602,373.371368 311.769409,372.610687 316.715057,372.100708 
M289.911713,257.379883 
	C289.332611,259.802460 286.727936,261.556885 287.445984,265.704803 
	C291.912140,260.495605 294.884003,255.740631 297.109100,249.255737 
	C292.639709,250.919113 292.092926,254.384705 289.911713,257.379883 
M291.158386,327.675873 
	C287.517792,325.352509 284.056274,325.849365 280.698212,328.330627 
	C284.191803,329.588226 287.662720,330.621490 291.158386,327.675873 
M285.646240,243.567123 
	C287.596680,243.343002 289.854828,243.905930 291.376434,241.311768 
	C287.615479,239.952103 284.344788,239.766144 280.991058,241.711533 
	C281.928589,243.661652 283.607239,243.166977 285.646240,243.567123 
M307.175903,283.769196 
	C304.701630,283.488464 302.128357,282.645844 299.489929,284.984100 
	C303.266388,287.190582 306.341675,286.345673 310.322693,284.882446 
	C308.937622,284.333130 308.379333,284.111725 307.175903,283.769196 
M305.417542,198.151413 
	C304.694977,198.367554 303.705475,198.181717 303.570343,199.593613 
	C306.319672,200.362579 308.893127,199.836487 311.442352,198.355896 
	C309.670776,198.270126 307.899200,198.184357 305.417542,198.151413 
z"/>
<path fill="#000000" opacity="1.000000" stroke="none" 
	d="
M482.881897,38.015633 
	C473.605530,44.419796 463.589569,44.132023 453.411041,42.591400 
	C450.288879,42.118824 447.145264,41.598442 444.503815,39.633347 
	C441.068146,37.077396 440.780792,33.929512 443.608765,30.778193 
	C445.380066,28.804379 447.316071,26.908833 448.720428,24.688635 
	C452.514771,18.690111 458.633759,17.257767 464.764038,17.357990 
	C477.000244,17.558043 483.562042,25.273485 482.881897,38.015633 
z"/>
<path fill="#000000" opacity="1.000000" stroke="none" 
	d="
M752.477722,346.811890 
	C747.395386,331.264496 755.133911,320.643250 773.029968,319.725616 
	C782.987244,319.215057 792.991760,319.633606 802.974976,319.616028 
	C805.332397,319.611877 807.276855,319.916962 807.307739,323.008911 
	C807.417786,334.038940 805.303894,344.458374 796.089539,351.475983 
	C784.858521,360.029510 772.303467,360.839966 759.441589,355.165344 
	C756.024902,353.657959 753.369934,351.107971 752.477722,346.811890 
z"/>
</svg>